<?xml version="1.0" encoding="UTF-8"?>
<!DOCTYPE svg PUBLIC "-//W3C//DTD SVG 1.1//EN" "http://www.w3.org/Graphics/SVG/1.1/DTD/svg11.dtd">
<!-- Creator: CorelDRAW -->
<svg xmlns="http://www.w3.org/2000/svg" xml:space="preserve" width="8.26772in" height="11.6929in" version="1.1" style="shape-rendering:geometricPrecision; text-rendering:geometricPrecision; image-rendering:optimizeQuality; fill-rule:evenodd; clip-rule:evenodd"
viewBox="0 0 8267.72 11692.91"
 xmlns:xlink="http://www.w3.org/1999/xlink"
 xmlns:xodm="http://www.corel.com/coreldraw/odm/2003">
 <defs>
  <style type="text/css">
   <![CDATA[
    .fil1 {fill:none}
    .fil0 {fill:#8ABBAE;fill-rule:nonzero}
   ]]>
  </style>
 </defs>
 <g id="Слой_x0020_1">
  <metadata id="CorelCorpID_0Corel-Layer"/>
  <g id="_105553162051648">
   <path class="fil0" d="M4518.86 5402.39c-10.71,24.68 -21.97,48.12 -34.39,71.98 -78.65,145.06 -166.2,255.59 -277.13,376.83 -200.87,210.91 -420.17,396.98 -671.07,545.9 -230.43,123.33 -470.94,244.24 -704.78,361.87 13.39,-7.37 21.95,-15.35 30.26,-28.19 7.68,-12.97 11.04,-24.12 11.72,-39.17 0.11,-15.06 -2.63,-26.3 -9.58,-39.67 -7.53,-13.13 -15.61,-21.61 -28.44,-29.64 -0.72,-0.75 -10.1,-3.16 -10.31,-2.69 -4.15,-0.32 -9.06,0.5 -7.76,0.24 22.85,-5.68 32.89,-10.92 59.15,-14.1 44.85,-3.58 77.56,5.25 118.24,23.62 56.33,27.78 100.8,63.34 147.93,104.4 25.96,22.53 50.31,39.07 80.32,55.59 9.06,4.83 18.08,9.35 27.46,13.52 1.97,0.96 4.2,1.77 6.24,2.62 0.74,0.31 -0.71,-0.24 -0.72,-0.2 -10.15,-3.19 -17.18,-3.31 -28.22,-3.21 -41.19,212.93 31.4,154.57 -303.12,69.39 -48.96,-12.83 -88.58,-25.93 -128.23,-58.58 -18.62,-16.6 -30.1,-31.5 -41.05,-53.93 -9.36,-20.76 -13.56,-37.72 -16.34,-60.21 -6.17,-80.9 9.57,-187.35 9.82,-275.09 -0.17,-85.94 2.03,-169.3 10.41,-254.85 4.54,-46.46 9.49,-103.59 29.81,-146.12 4.06,-7.68 8.01,-13.3 14,-19.67 4.99,-5.09 9.58,-8.67 15.74,-12.31 9,-5.04 16.59,-7.51 26.85,-8.81 11.42,-1.06 20.24,0.02 31.05,3.83 8.4,3.26 14.52,6.85 21.37,12.67 8,7.24 12.83,13.54 17.83,22.98 10.35,22.14 13.23,43.33 16.14,67.32 7.21,84.74 5.85,173.55 4.16,258.57 -2.14,21.56 -39.37,272.56 -59.22,265.13 -18.72,9.4 14.47,-231.72 14.8,-265.13 -2.96,-81.05 -6.35,-170.94 -20.95,-250.7 -2.13,-13.31 -5.33,-33.54 -12.02,-45.34 -0.54,-1.52 -2.09,-2.75 -3.02,-3.86 -0.36,-0.43 -1.05,-0.6 -1.51,-0.85 -0.45,-0.25 -1.07,-0.1 -1.48,-0.14 -0.43,-0.04 -1.1,0.43 -1.44,0.56 -0.39,0.14 -1.09,0.94 -1.41,1.23 -0.56,0.5 -2.62,3.82 -2.74,4.43 -10.54,29.2 -14.21,90.9 -16.21,122.08 -2.89,83.13 -1.76,164.5 1.44,247.61 2.17,76.88 -8.77,197.5 0.36,265 1.8,11.26 4.01,20.18 9.17,30.41 4.92,9.09 9.8,14.74 17.76,21.31 25.67,18.97 58.54,27.11 89.12,34.26 156.31,37.11 305.42,29.67 286.69,139.8 -5.6,0.06 -8.28,-0.16 -13.29,-1.72 -0.86,-0.1 -3.24,-1.1 -4.24,-1.4 -3.87,-1.18 -7.62,-3.04 -11.38,-4.31 -12.46,-4.94 -24.3,-10.44 -36.29,-16.44 -39.09,-19.6 -70.39,-39.89 -104.25,-67.75 -37.78,-31.45 -77.14,-62.39 -122.43,-82.32 -18.01,-7.63 -34.57,-13.4 -54.3,-10.77 -5.8,-0.79 -33.28,10.69 -40.91,12.19 -12.91,3.41 -22.65,4.63 -36.07,3.62 -16.17,-1.72 -27.7,-5.97 -41.78,-13.97 -7.76,-4.85 -12.68,-9.96 -17.23,-17.9 -4.22,-8.07 -5.9,-14.97 -5.83,-24.08 0.39,-9.11 2.42,-15.95 7.07,-23.81 4.98,-7.75 10.2,-12.61 18.25,-17.07 221.51,-128.98 477.1,-243.65 690.49,-375.85 233.18,-147.94 438.2,-327.28 625.18,-530.05 98.06,-110.87 177.57,-213.47 246.09,-345.34 26.93,-54.32 46.22,-101.91 60.15,-161.06 10.46,-49.04 14.08,-88.35 6.84,-138.18 -26.95,-170.29 -55.74,-341.78 -112.99,-504.95 -18.69,-50.7 -37.72,-95.04 -68.63,-139.63 -20.24,-27.74 -38.88,-48.1 -69.54,-64.22 -29.01,-13.74 -52.64,-16.1 -84.48,-14.41 -50.47,4.46 -92.86,19.04 -139.44,38.25 -165.8,74.24 -313.51,183.07 -457.55,292.39 -15.97,12.95 -26.09,30.65 -34.95,48.89 -2.09,2.59 -9.77,23.5 -11.28,27.81 -8.02,23.45 -13.23,45.08 -17.58,69.47 -13.2,83.82 -11.89,157.68 5,240.85 7.54,33.08 16.21,61.56 31.93,91.74 8.21,14.75 18.12,30.56 32.35,40.24 2.81,1.74 5.1,2.92 8.34,3.63 4.1,0.8 7.67,0.41 11.75,-0.33 26.06,-5.66 50.94,-25.2 70.76,-42.04 245.59,-224.91 367.69,-436.88 485.17,-744.85 108.19,-306.53 162.71,-585.25 220.41,-902.63 15.24,-110.14 45.02,-948.73 118.25,-969.58 33.05,35.85 14.48,918.4 8.94,988.87 -13.48,109.16 -28.14,217.18 -45.5,325.82 -34.33,215.7 -74.84,405.19 -142.07,613.81 -119.04,344.13 -251.27,579.26 -518.98,831.56 -49.61,43.12 -93.22,71.95 -157.87,87.46 -30.43,6.04 -54.2,6.78 -84.87,1.88 -29.36,-5.59 -50.8,-13.91 -76.41,-29.26 -46.75,-30.42 -73.76,-63.5 -101.02,-111.58 -25.44,-47.69 -39.6,-89.85 -51.9,-142.31 -23.19,-110.5 -25.33,-205.21 -8.05,-316.76 9.69,-53.96 21.81,-97.7 44.62,-147.73 19.91,-41.18 39.53,-71.02 72.35,-103.2 6.96,-6.52 13.72,-12.3 21.28,-18.13 159.57,-120.61 318.31,-234.81 502.86,-314.46 69.35,-27.88 127.18,-45.35 202.14,-50.79 69.44,-2.79 120.57,6.02 183.13,37.03 60.41,33.2 96.99,69.76 136.59,125.65 40.56,60.82 64.82,116.79 89.03,185.45 58.07,176.85 86.2,357.07 112.36,540.83 9.09,74.19 3.85,131.31 -13.16,203.79 -11.56,45.26 -25.31,84.08 -43.74,126.96z"/>
  </g>
  <path class="fil1" d="M4391.74 2568.22c-47.94,173.57 -8.86,682.08 -53.89,979.01 -92.52,610.01 -219.17,1276.94 -708.99,1709.33 -336.65,297.18 -428.36,-471 -219.49,-630.4 782.6,-597.25 949.63,-411.33 1075.56,458.63 62.76,433.58 -646.15,1037.04 -991.92,1237.8 -45.62,26.49 -703.17,364.54 -705.63,366.57 74.99,52.93 76.57,-92.56 302.57,104.97 134.11,117.22 297.09,112.74 -147.08,3.37 -187.15,-46.08 -118.67,-116.26 -122.94,-374.98 -6.55,-397.46 58.94,-564.21 58.94,-75.22 0,61.78 -41.15,246.72 -39.3,268.33"/>
 </g>
</svg>
