<svg width="328" height="199" viewBox="0 0 328 199" fill="none" xmlns="http://www.w3.org/2000/svg">
<path d="M148.833 7.02455C156.912 -2.0431 171.088 -2.0431 179.167 7.02455V7.02455C185.328 13.9408 195.388 15.8127 203.625 11.5754L214.623 5.9177C222.906 1.65635 232.961 6.54152 234.731 15.6872V15.6872C236.217 23.3681 243.72 28.3318 251.37 26.695L270.332 22.6381C278.226 20.9493 284.701 28.9319 281.419 36.3073V36.3073C278.536 42.7891 283.225 50.1064 290.318 50.1942L306.413 50.3935C314.58 50.4946 318.156 60.7475 311.824 65.906V65.906C306.223 70.4689 308.263 79.4712 315.285 81.1732L320.265 82.3807C329.096 84.5215 329.875 96.7785 321.386 100.02L320.531 100.347C313.537 103.018 312.836 112.637 319.369 116.294V116.294C326.813 120.461 324.601 131.715 316.134 132.756L304.969 134.128C297.941 134.992 294.589 143.233 299.018 148.758V148.758C304.022 154.999 299.051 164.187 291.088 163.412L272.187 161.573C264.894 160.864 258.818 167.087 259.701 174.361V174.361C260.723 182.776 252.57 189.35 244.563 186.566L228.412 180.952C220.359 178.153 211.47 181.678 207.524 189.236V189.236C202.622 198.623 190.482 201.391 181.995 195.057L176.15 190.694C168.943 185.315 159.057 185.315 151.85 190.694L146.005 195.057C137.518 201.391 125.378 198.623 120.476 189.236V189.236C116.53 181.678 107.641 178.153 99.5877 180.952L83.4373 186.566C75.4296 189.35 67.2765 182.776 68.2986 174.361V174.361C69.182 167.087 63.1059 160.864 55.8129 161.573L36.9119 163.412C28.9494 164.187 23.9779 154.999 28.9821 148.758V148.758C33.4111 143.233 30.0586 134.992 23.0307 134.128L11.8658 132.756C3.39865 131.715 1.1873 120.461 8.63121 116.294V116.294C15.1644 112.637 14.4631 103.018 7.46857 100.347L6.61355 100.02C-1.87531 96.7785 -1.09631 84.5215 7.73463 82.3807L12.7155 81.1732C19.7365 79.4712 21.7769 70.4689 16.1758 65.906V65.906C9.84351 60.7475 13.4198 50.4946 21.5867 50.3935L37.6815 50.1942C44.7753 50.1064 49.4645 42.7891 46.5806 36.3073V36.3073C43.2991 28.9319 49.7737 20.9493 57.6676 22.6381L76.6298 26.695C84.2801 28.3318 91.7832 23.3681 93.2695 15.6872V15.6872C95.0391 6.54152 105.094 1.65636 113.377 5.9177L124.375 11.5754C132.612 15.8127 142.672 13.9409 148.833 7.02455V7.02455Z" fill="#E7FB07" fill-opacity="0.29"/>
</svg>
